<svg width="1280" height="720" xmlns="http://www.w3.org/2000/svg" xmlns:xlink="http://www.w3.org/1999/xlink" overflow="hidden"><defs><clipPath id="clip0"><rect x="0" y="0" width="1280" height="720"/></clipPath></defs><g clip-path="url(#clip0)"><rect x="0" y="0" width="1280" height="720" fill="#FFFFFF"/><path d="M484.5 367.5C484.5 305.644 537.33 255.5 602.5 255.5 667.67 255.5 720.5 305.644 720.5 367.5 720.5 429.356 667.67 479.5 602.5 479.5 537.33 479.5 484.5 429.356 484.5 367.5Z" stroke="#2F528F" stroke-width="1.33333" stroke-miterlimit="8" fill="#33A06F" fill-rule="evenodd"/><text fill="#FFFFFF" font-family="Calibri,Calibri_MSFontService,sans-serif" font-weight="400" font-size="24" transform="translate(543.579 360)">UI <tspan font-size="24" x="26.8333" y="0">Renderer</tspan><tspan font-size="24" x="23.5067" y="29">(Vue 3)</tspan></text><path d="M501.5 140C501.5 86.7046 546.719 43.5001 602.5 43.5001 658.281 43.5001 703.5 86.7046 703.5 140 703.5 193.296 658.281 236.5 602.5 236.5 546.719 236.5 501.5 193.296 501.5 140Z" stroke="#2F528F" stroke-width="1.33333" stroke-miterlimit="8" fill="#33A06F" fill-rule="evenodd"/><text fill="#FFFFFF" font-family="Calibri,Calibri_MSFontService,sans-serif" font-weight="400" font-size="24" transform="translate(569.299 104)">Design <tspan font-size="24" x="-22.08" y="29">system and </tspan><tspan font-size="24" x="-22.0133" y="58">playground</tspan><tspan font-size="24" x="-24.28" y="87">(Storybook)</tspan></text><path d="M258.5 367.5C258.5 316.138 301.928 274.5 355.5 274.5 409.072 274.5 452.5 316.138 452.5 367.5 452.5 418.863 409.072 460.5 355.5 460.5 301.928 460.5 258.5 418.863 258.5 367.5Z" stroke="#2F528F" stroke-width="1.33333" stroke-miterlimit="8" fill="#33A06F" fill-rule="evenodd"/><text fill="#FFFFFF" font-family="Calibri,Calibri_MSFontService,sans-serif" font-weight="400" font-size="24" transform="translate(332.708 346)">Web <tspan font-size="24" x="-32.52" y="29">Framework</tspan><tspan font-size="24" x="-16.8933" y="58">(</tspan><tspan font-size="24" x="-9.56" y="58">Nuxt</tspan><tspan font-size="24" x="42.5133" y="58">3)</tspan></text><path d="M534.5 567C534.5 530.825 564.945 501.5 602.5 501.5 640.055 501.5 670.5 530.825 670.5 567 670.5 603.175 640.055 632.5 602.5 632.5 564.945 632.5 534.5 603.175 534.5 567Z" stroke="#2F528F" stroke-width="1.33333" stroke-miterlimit="8" fill="#33A06F" fill-rule="evenodd"/><text fill="#FFFFFF" font-family="Calibri,Calibri_MSFontService,sans-serif" font-weight="400" font-size="24" transform="translate(568.076 560)">Testing<tspan font-size="24" x="-1.26666" y="29">(</tspan><tspan font-size="24" x="6.06665" y="29">Vitest</tspan><tspan font-size="24" x="62.04" y="29">)</tspan></text><path d="M746.5 367C746.5 317.018 788.809 276.5 841 276.5 893.191 276.5 935.5 317.018 935.5 367 935.5 416.982 893.191 457.5 841 457.5 788.809 457.5 746.5 416.982 746.5 367Z" stroke="#2F528F" stroke-width="1.33333" stroke-miterlimit="8" fill="#33A06F" fill-rule="evenodd"/><text fill="#FFFFFF" font-family="Calibri,Calibri_MSFontService,sans-serif" font-weight="400" font-size="24" transform="translate(792.43 360)">CSS <tspan font-size="24" x="40.3333" y="0">utility</tspan><tspan font-size="24" x="0.686646" y="29">(</tspan><tspan font-size="24" x="8.01996" y="29">Tailwind</tspan>)</text><path d="M484.018 367 452 367" stroke="#4472C4" stroke-width="2" stroke-miterlimit="8" fill="none" fill-rule="evenodd"/><path d="M0 0 0.000209974 22.0898" stroke="#4472C4" stroke-width="2" stroke-miterlimit="8" fill="none" fill-rule="evenodd" transform="matrix(-1 0 0 1 602 479)"/><path d="M0 0 26.064 0.000104987" stroke="#4472C4" stroke-width="2" stroke-miterlimit="8" fill="none" fill-rule="evenodd" transform="matrix(1 0 0 -1 720 367)"/><path d="M602 236 602 254.912" stroke="#4472C4" stroke-width="2" stroke-miterlimit="8" fill="none" fill-rule="evenodd"/></g></svg>